<?xml version="1.0" encoding="utf-8"?>
<svg xmlns="http://www.w3.org/2000/svg" xmlns:xlink="http://www.w3.org/1999/xlink">

	<symbol xmlns="http://www.w3.org/2000/svg" viewBox="0 0 31.059 31.059"  id="add">
		<path d="m15.529 0c-8.563 2.3685e-15 -15.529 6.9663-15.529 15.529 2.3685e-15 8.563 6.9663 15.529 15.529 15.529 8.563 0 15.53-6.9663 15.529-15.529 0-8.563-6.9663-15.529-15.529-15.529zm0 1.7734c7.584 0 13.754 6.1719 13.754 13.756 0 7.584-6.1699 13.754-13.754 13.754-7.585 0-13.756-6.1699-13.756-13.754 0-7.584 6.1709-13.756 13.756-13.756zm0 6.7441c-0.49 0-0.88867 0.39867-0.88867 0.88867v5.2344h-5.2344c-0.491 0-0.88867 0.39867-0.88867 0.88867 0 0.491 0.39867 0.88672 0.88867 0.88672h5.2344v5.2363c0 0.49 0.39867 0.88672 0.88867 0.88672 0.491 0 0.88672-0.39572 0.88672-0.88672v-5.2363h5.2363c0.491 0 0.88672-0.39572 0.88672-0.88672 0-0.49-0.39672-0.88867-0.88672-0.88867h-5.2363v-5.2344c0-0.49-0.39672-0.88867-0.88672-0.88867z"/>
	</symbol>
	
	<symbol xmlns="http://www.w3.org/2000/svg" viewBox="0 0 1018.9 992.25" id="shop">
		<path d="m1013.1 268.13c-5.9678-8.4639-15.663-13.502-25.999-13.502h-99.744l-205.14-174.83c-24.976-24.976-65.52-25.008-90.495 0l-201.65 174.83h-82.096l-51.408-177.28c-20.16-69.808-68.064-77.344-87.713-77.344h-137.09c-17.568 0-31.776 14.224-31.776 31.775s14.224 31.775 31.775 31.775h137.06c4.3359 0 17.568 0 26.593 31.184l176.85 649.94c3.8398 13.712 16.336 23.184 30.592 23.184h431.97c13.408 0 25.376-8.4004 29.904-21.024l152.26-449.68c3.5039-9.7441 2.0479-20.592-3.8877-29.023zm-376.12-143.07 152.03 129.58h-304.11zm175.49 579.26h-385.49l-101.15-386.13h616.1zm-63.023 127.94c-44.192 0-80 35.808-80 80s35.808 80 80 80 80-35.808 80-80-35.808-80-80-80zm-288 0c-44.192 0-80 35.808-80 80s35.808 80 80 80 80-35.808 80-80-35.808-80-80-80z"/>
	</symbol>
	
	<symbol xmlns="http://www.w3.org/2000/svg" viewBox="0 0 1024 1025"  id="users">
		<path d="m746 835.79-201.47-111.6c74.88-58.912 95.216-174.69 95.216-239.6v-135.12c0-89.472-118.88-189.12-238.29-189.12-119.38 0-241.41 99.664-241.41 189.12v135.12c0 59.024 24.976 178.43 100.62 239.09l-206.67 112.11s-54 24.064-54 54.064v81.088c0 29.84 24.224 54.064 54 54.064h692c29.808 0 54.031-24.224 54.031-54.064v-81.088c0-31.808-54.032-54.064-54.032-54.064zm-9.967 125.22h-672.03v-57.216c4.5918-3.3438 11.008-7.2158 16.064-9.5361 1.5039-0.68848 3.0078-1.4082 4.4316-2.2246l206.69-112.1c18.848-10.224 31.344-29.184 33.248-50.527s-7.0078-42.256-23.712-55.664c-53.664-43.024-76.656-138.32-76.656-189.15v-135.12c0-45.968 86.656-125.12 177.41-125.12 92.432 0 174.29 78.064 174.29 125.12v135.12c0 50.128-15.568 145.84-70.784 189.28-16.912 13.312-26 34.224-24.224 55.664 1.8076 21.44 14.256 40.528 33.12 50.849l201.47 111.6c1.7764 0.97558 4.0322 2.0312 5.9043 2.8477 4.7197 2 10.527 5.3438 14.783 8.2881v57.888zm233.94-284.56-204.46-111.6c74.88-58.912 98.224-174.69 98.224-239.6v-135.12c0-89.472-121.87-190.13-241.28-190.13-77.6 0-156.94 42.192-203.12 96.225 26.336 1.6318 55.376 1.6641 80.464 9.6641 33.712-26.256 76.368-41.872 122.66-41.872 92.432 0 177.28 79.056 177.28 126.13v135.12c0 50.128-18.56 145.84-73.775 189.28-16.912 13.312-26 34.224-24.224 55.664 1.8076 21.44 14.256 40.528 33.12 50.849l204.46 111.6c1.7764 0.97559 4.0322 2.0312 5.9043 2.8477 4.7197 2 10.527 5.3438 14.783 8.2881v56.912h-129.18c19.504 14.72 25.408 35.775 32.977 63.999h106.19c29.808 0 54.031-24.224 54.031-54.064v-80.096c-0.016-31.84-54.048-54.096-54.048-54.096z"/>
	</symbol>
	
	<symbol xmlns="http://www.w3.org/2000/svg" viewBox="0 0 1024 957.07"  id="company">
		<path d="m960.03 158h-255.6v-62c0-52.944-43.056-96-96-96h-192.43c-52.944 0-96 43.056-96 96v62h-255.97c-35.184 0-64 28.816-64 64v224.26h-0.032227v64h0.032227v382.82c0 35.184 28.816 64 64 64h896c35.184 0 64-28.816 64-64v-671.07c0-35.184-28.816-64-64-64zm-576.03-62c0-17.664 14.336-32 32-32h192.43c17.664 0 32 14.336 32 32v62h-256.43zm-319.97 126h896v224.26h-352.37v-32.752c0-35.28-28.72-64-64-64h-63.744c-35.28 0-64 28.72-64 64v32.752h-351.89v-224.26zm479.68 352.66h-63.809v-161.15h63.744zm-479.68 318.4v-382.82h351.87v64.4c0 35.28 28.72 64 64 64h63.744c35.28 0 64-28.72 64-64v-64.4h352.37v382.82h-895.98z"/>
	</symbol>
	
	<symbol xmlns="http://www.w3.org/2000/svg" viewBox="0 0 1027.4 1023.7"  id="magnifier">
		<path d="m1018.1 969.04-310.93-312.83c57.952-69.408 92.88-158.7 92.88-256.21 0-220.91-179.09-400-400-400s-400 179.09-400 400 179.09 400 400 400c100.37 0 192.05-37.056 262.29-98.144l310.5 312.45c12.496 12.496 32.769 12.496 45.265 0 12.48-12.496 12.48-32.752 0-45.264zm-618.05-232.51c-185.86 0-336.53-150.67-336.53-336.53s150.67-336.53 336.53-336.53 336.53 150.67 336.53 336.53-150.67 336.53-336.53 336.53z"/>
	</symbol>
	
	<symbol xmlns="http://www.w3.org/2000/svg" viewBox="0 0 493.12 464"  id="filter">
		<path d="m0 0 198.56 198.56v265.44l96-72v-193.44l198.56-198.56zm262.56 188.64v192l-32 24v-216l-156.64-156.64h345.28z"/>
	</symbol>
	
	<symbol xmlns="http://www.w3.org/2000/svg" viewBox="0 0 1024 1025"  id="chain">
		<path d="m209 577h-145c-35 0-64 29-64 64v320c0 35 29 64 64 64h320c35 0 64-29 64-64v-320c0-35-29-64-64-64h-113v-38h483v38h-114c-35 0-64 29-64 64v320c0 35 29 64 64 64h320c35 0 64-29 64-64v-320c0-35-29-64-64-64h-144v-60c0-22-28-33-53-33h-220v-36h138c35 0 64-29 64-64v-320c0-35-29-64-64-64h-320c-35 0-64 29-64 64v320c0 35 29 64 64 64h118v37c-83 0-134-1-217-1-25 0-53 10-53 33zm-145 64h320v320h-320zm297-577h320v320h-320zm279 577h320v320h-320z"/>
	</symbol>
	
</svg>
