<?xml version="1.0" encoding="UTF-8" standalone="no"?>
<!-- Generator: Adobe Illustrator 19.0.0, SVG Export Plug-In . SVG Version: 6.00 Build 0)  -->

<svg
   xmlns:dc="http://purl.org/dc/elements/1.1/"
   xmlns:cc="http://creativecommons.org/ns#"
   xmlns:rdf="http://www.w3.org/1999/02/22-rdf-syntax-ns#"
   xmlns:svg="http://www.w3.org/2000/svg"
   xmlns="http://www.w3.org/2000/svg"
   xmlns:sodipodi="http://sodipodi.sourceforge.net/DTD/sodipodi-0.dtd"
   xmlns:inkscape="http://www.inkscape.org/namespaces/inkscape"
   version="1.1"
   id="Layer_1"
   x="0px"
   y="0px"
   viewBox="0 0 441.38013 512"
   xml:space="preserve"
   sodipodi:docname="empty.svg"
   width="441.38013"
   height="512"
   inkscape:version="0.92.2 (5c3e80d, 2017-08-06)"><metadata
     id="metadata75"><rdf:RDF><cc:Work
         rdf:about=""><dc:format>image/svg+xml</dc:format><dc:type
           rdf:resource="http://purl.org/dc/dcmitype/StillImage" /><dc:title></dc:title></cc:Work></rdf:RDF></metadata><defs
     id="defs73" /><sodipodi:namedview
     pagecolor="#ffffff"
     bordercolor="#666666"
     borderopacity="1"
     objecttolerance="10"
     gridtolerance="10"
     guidetolerance="10"
     inkscape:pageopacity="0"
     inkscape:pageshadow="2"
     inkscape:window-width="1366"
     inkscape:window-height="705"
     id="namedview71"
     showgrid="false"
     fit-margin-top="0"
     fit-margin-left="0"
     fit-margin-right="0"
     fit-margin-bottom="0"
     inkscape:zoom="0.4609375"
     inkscape:cx="220.69013"
     inkscape:cy="342.77966"
     inkscape:window-x="-8"
     inkscape:window-y="-8"
     inkscape:window-maximized="1"
     inkscape:current-layer="Layer_1" /><path
     style="fill:#eff2fa"
     d="M 361.93213,0 H 88.276125 c -9.75,0 -17.655,7.904 -17.655,17.655 v 476.69 c 0,9.75 7.905,17.655 17.655,17.655 H 423.72413 c 9.75,0 17.655,-7.905 17.655,-17.655 V 79.448 Z"
     id="path2"
     inkscape:connector-curvature="0" /><path
     inkscape:connector-curvature="0"
     id="path4"
     d="m 441.38013,79.448 h -69.517 c -5.485,0 -9.931,-4.446 -9.931,-9.931 V 0 Z"
     style="fill:#d7deed" /><path
     style="fill:#d7deed;stroke-width:0.9999904"
     d="m 165.53532,329.67111 16.79222,16.79222 -42.66288,42.66288 -16.79222,-16.79222 z"
     id="rect6"
     inkscape:connector-curvature="0" /><path
     style="fill:#c7cfe2"
     d="m 150.52113,344.686 c 5.108,6.068 10.724,11.686 16.792,16.793 l 15.019,-15.019 -16.792,-16.792 z"
     id="path10"
     inkscape:connector-curvature="0" /><path
     style="fill:#707487"
     d="m 17.770125,508.156 -13.924,-13.921 c -5.128,-5.127 -5.128,-13.439 -10e-4,-18.566 L 114.63013,364.884 c 5.127,-5.127 13.437,-5.127 18.563,-0.001 l 13.924,13.922 c 5.128,5.127 5.128,13.439 0.001,18.566 L 36.335125,508.155 c -5.127,5.126 -13.438,5.126 -18.565,0.001 z"
     id="path12"
     inkscape:connector-curvature="0" /><path
     style="fill:#5b5d6e"
     d="M 16.972125,488.794 127.75813,378.009 c 5.127,-5.127 13.437,-5.127 18.563,-0.001 l 0.812,0.812 c 0,0 -0.009,-0.011 -0.013,-0.017 l -13.924,-13.922 c -5.127,-5.125 -13.438,-5.125 -18.564,0.001 L 3.846125,475.669 c -5.127,5.127 -5.127,13.439 0.001,18.566 l 13.117,13.115 c -5.117,-5.129 -5.115,-13.432 0.008,-18.556 z"
     id="path14"
     inkscape:connector-curvature="0" /><path
     style="fill:#c7cfe2"
     d="m 139.03213,405.458 8.088,-8.088 c 5.127,-5.127 5.127,-13.439 -10e-4,-18.566 l -13.924,-13.922 c -5.127,-5.125 -13.438,-5.125 -18.564,10e-4 l -8.087,8.087 z"
     id="path16"
     inkscape:connector-curvature="0" /><path
     inkscape:connector-curvature="0"
     id="path18"
     d="m 119.67113,386.097 8.087,-8.087 c 5.127,-5.127 13.437,-5.127 18.563,-10e-4 l 0.811,0.81 c 0,0 -0.008,-0.01 -0.012,-0.015 l -13.924,-13.922 c -5.127,-5.126 -13.438,-5.126 -18.564,10e-4 l -8.087,8.087 z"
     style="fill:#afb9d2" /><path
     style="fill:#ffffff"
     d="M 344.27714,256 A 88.276001,88.276001 0 0 1 256.00113,344.276 88.276001,88.276001 0 0 1 167.72513,256 88.276001,88.276001 0 0 1 256.00113,167.724 88.276001,88.276001 0 0 1 344.27714,256 Z"
     id="circle22"
     inkscape:connector-curvature="0" /><path
     inkscape:connector-curvature="0"
     id="path24"
     d="m 256.00113,379.586 c -68.147,0 -123.586,-55.439 -123.586,-123.586 0,-68.147 55.439,-123.586 123.586,-123.586 68.147,0 123.586,55.439 123.586,123.586 0,68.147 -55.44,123.586 -123.586,123.586 z m 0,-229.517 c -58.41,0 -105.931,47.521 -105.931,105.931 0,58.41 47.521,105.931 105.931,105.931 58.41,0 105.931,-47.521 105.931,-105.931 0,-58.41 -47.522,-105.931 -105.931,-105.931 z"
     style="fill:#d7deed" /><path
     inkscape:connector-curvature="0"
     id="path26"
     d="m 308.96613,264.828 h -105.931 c -4.875,0 -8.828,-3.953 -8.828,-8.828 v 0 c 0,-4.875 3.953,-8.828 8.828,-8.828 h 105.931 c 4.875,0 8.828,3.953 8.828,8.828 v 0 c 0,4.875 -3.953,8.828 -8.828,8.828 z"
     style="fill:#d7deed" /><path
     inkscape:connector-curvature="0"
     id="path28"
     d="m 291.31113,229.517 h -26.483 c -4.875,0 -8.828,-3.953 -8.828,-8.828 v 0 c 0,-4.875 3.953,-8.828 8.828,-8.828 h 26.483 c 4.875,0 8.828,3.953 8.828,8.828 v 0 c -0.001,4.876 -3.953,8.828 -8.828,8.828 z"
     style="fill:#d7deed" /><path
     inkscape:connector-curvature="0"
     id="path30"
     d="m 220.69013,300.138 h -8.828 c -4.875,0 -8.828,-3.953 -8.828,-8.828 v 0 c 0,-4.875 3.953,-8.828 8.828,-8.828 h 8.828 c 4.875,0 8.828,3.953 8.828,8.828 v 0 c 0,4.875 -3.953,8.828 -8.828,8.828 z"
     style="fill:#d7deed" /><path
     inkscape:connector-curvature="0"
     id="path34"
     d="m 229.51813,229.517 h -17.655 c -4.875,0 -8.828,-3.953 -8.828,-8.828 v 0 c 0,-4.875 3.953,-8.828 8.828,-8.828 h 17.655 c 4.875,0 8.828,3.953 8.828,8.828 v 0 c -10e-4,4.876 -3.953,8.828 -8.828,8.828 z"
     style="fill:#c7cfe2" /><path
     inkscape:connector-curvature="0"
     id="path36"
     d="m 291.31113,300.138 h -35.31 c -4.875,0 -8.828,-3.953 -8.828,-8.828 v 0 c 0,-4.875 3.953,-8.828 8.828,-8.828 h 35.31 c 4.875,0 8.828,3.953 8.828,8.828 v 0 c -0.001,4.875 -3.953,8.828 -8.828,8.828 z"
     style="fill:#c7cfe2" /></svg>